<?xml version="1.0" encoding="utf-8" standalone="no"?>
<!DOCTYPE svg PUBLIC "-//W3C//DTD SVG 1.1//EN"
  "http://www.w3.org/Graphics/SVG/1.1/DTD/svg11.dtd">
<svg xmlns:xlink="http://www.w3.org/1999/xlink" width="576pt" height="331.2pt" viewBox="0 0 576 331.2" xmlns="http://www.w3.org/2000/svg" version="1.1">
 <metadata>
  <rdf:RDF xmlns:dc="http://purl.org/dc/elements/1.1/" xmlns:cc="http://creativecommons.org/ns#" xmlns:rdf="http://www.w3.org/1999/02/22-rdf-syntax-ns#">
   <cc:Work>
    <dc:type rdf:resource="http://purl.org/dc/dcmitype/StillImage"/>
    <dc:description>Reused keys replay the same sample</dc:description>
    <dc:format>image/svg+xml</dc:format>
    <dc:creator>
     <cc:Agent>
      <dc:title>Matplotlib v3.10.8, https://matplotlib.org/</dc:title>
     </cc:Agent>
    </dc:creator>
   </cc:Work>
  </rdf:RDF>
 </metadata>
 <defs>
  <style type="text/css">*{stroke-linejoin: round; stroke-linecap: butt}</style>
 </defs>
 <g id="figure_1">
  <g id="patch_1">
   <path d="M 0 331.2 
L 576 331.2 
L 576 0 
L 0 0 
z
" style="fill: #ffffff"/>
  </g>
  <g id="axes_1">
   <g id="patch_2">
    <path d="M 58.149459 292.036635 
L 572.99976 292.036635 
L 572.99976 3.00024 
L 58.149459 3.00024 
z
" style="fill: #ffffff"/>
   </g>
   <g id="matplotlib.axis_1">
    <g id="xtick_1">
     <g id="line2d_1">
      <defs>
       <path id="md04421ea2f" d="M 0 0 
L 0 3.5 
" style="stroke: #000000; stroke-width: 0.8"/>
      </defs>
      <g>
       <use xlink:href="#md04421ea2f" x="81.551745" y="292.036635" style="stroke: #000000; stroke-width: 0.8"/>
      </g>
     </g>
     <g id="text_1">
      <text style="font-size: 13px; font-family: 'DejaVu Sans'; text-anchor: middle" x="81.551745" y="308.914604" transform="rotate(-0 81.551745 308.914604)">0.00</text>
     </g>
    </g>
    <g id="xtick_2">
     <g id="line2d_2">
      <g>
       <use xlink:href="#md04421ea2f" x="140.057461" y="292.036635" style="stroke: #000000; stroke-width: 0.8"/>
      </g>
     </g>
     <g id="text_2">
      <text style="font-size: 13px; font-family: 'DejaVu Sans'; text-anchor: middle" x="140.057461" y="308.914604" transform="rotate(-0 140.057461 308.914604)">0.25</text>
     </g>
    </g>
    <g id="xtick_3">
     <g id="line2d_3">
      <g>
       <use xlink:href="#md04421ea2f" x="198.563177" y="292.036635" style="stroke: #000000; stroke-width: 0.8"/>
      </g>
     </g>
     <g id="text_3">
      <text style="font-size: 13px; font-family: 'DejaVu Sans'; text-anchor: middle" x="198.563177" y="308.914604" transform="rotate(-0 198.563177 308.914604)">0.50</text>
     </g>
    </g>
    <g id="xtick_4">
     <g id="line2d_4">
      <g>
       <use xlink:href="#md04421ea2f" x="257.068893" y="292.036635" style="stroke: #000000; stroke-width: 0.8"/>
      </g>
     </g>
     <g id="text_4">
      <text style="font-size: 13px; font-family: 'DejaVu Sans'; text-anchor: middle" x="257.068893" y="308.914604" transform="rotate(-0 257.068893 308.914604)">0.75</text>
     </g>
    </g>
    <g id="xtick_5">
     <g id="line2d_5">
      <g>
       <use xlink:href="#md04421ea2f" x="315.574609" y="292.036635" style="stroke: #000000; stroke-width: 0.8"/>
      </g>
     </g>
     <g id="text_5">
      <text style="font-size: 13px; font-family: 'DejaVu Sans'; text-anchor: middle" x="315.574609" y="308.914604" transform="rotate(-0 315.574609 308.914604)">1.00</text>
     </g>
    </g>
    <g id="xtick_6">
     <g id="line2d_6">
      <g>
       <use xlink:href="#md04421ea2f" x="374.080325" y="292.036635" style="stroke: #000000; stroke-width: 0.8"/>
      </g>
     </g>
     <g id="text_6">
      <text style="font-size: 13px; font-family: 'DejaVu Sans'; text-anchor: middle" x="374.080325" y="308.914604" transform="rotate(-0 374.080325 308.914604)">1.25</text>
     </g>
    </g>
    <g id="xtick_7">
     <g id="line2d_7">
      <g>
       <use xlink:href="#md04421ea2f" x="432.586041" y="292.036635" style="stroke: #000000; stroke-width: 0.8"/>
      </g>
     </g>
     <g id="text_7">
      <text style="font-size: 13px; font-family: 'DejaVu Sans'; text-anchor: middle" x="432.586041" y="308.914604" transform="rotate(-0 432.586041 308.914604)">1.50</text>
     </g>
    </g>
    <g id="xtick_8">
     <g id="line2d_8">
      <g>
       <use xlink:href="#md04421ea2f" x="491.091758" y="292.036635" style="stroke: #000000; stroke-width: 0.8"/>
      </g>
     </g>
     <g id="text_8">
      <text style="font-size: 13px; font-family: 'DejaVu Sans'; text-anchor: middle" x="491.091758" y="308.914604" transform="rotate(-0 491.091758 308.914604)">1.75</text>
     </g>
    </g>
    <g id="xtick_9">
     <g id="line2d_9">
      <g>
       <use xlink:href="#md04421ea2f" x="549.597474" y="292.036635" style="stroke: #000000; stroke-width: 0.8"/>
      </g>
     </g>
     <g id="text_9">
      <text style="font-size: 13px; font-family: 'DejaVu Sans'; text-anchor: middle" x="549.597474" y="308.914604" transform="rotate(-0 549.597474 308.914604)">2.00</text>
     </g>
    </g>
    <g id="text_10">
     <text style="font-size: 13px; font-family: 'DejaVu Sans'; text-anchor: middle; fill: #30273e" x="315.574609" y="325.496166" transform="rotate(-0 315.574609 325.496166)">sample coordinate</text>
    </g>
   </g>
   <g id="matplotlib.axis_2">
    <g id="ytick_1">
     <g id="line2d_10">
      <path d="M 58.149459 234.802786 
L 572.99976 234.802786 
" clip-path="url(#pf4133deb92)" style="fill: none; stroke: #b0b0b0; stroke-opacity: 0.2; stroke-width: 0.8; stroke-linecap: square"/>
     </g>
     <g id="line2d_11">
      <defs>
       <path id="mb277d62d63" d="M 0 0 
L -3.5 0 
" style="stroke: #000000; stroke-width: 0.8"/>
      </defs>
      <g>
       <use xlink:href="#mb277d62d63" x="58.149459" y="234.802786" style="stroke: #000000; stroke-width: 0.8"/>
      </g>
     </g>
     <g id="text_11">
      <text style="font-size: 13px; font-family: 'DejaVu Sans'; text-anchor: end" x="51.149459" y="239.74177" transform="rotate(-0 51.149459 239.74177)">−1.0</text>
     </g>
    </g>
    <g id="ytick_2">
     <g id="line2d_12">
      <path d="M 58.149459 174.030365 
L 572.99976 174.030365 
" clip-path="url(#pf4133deb92)" style="fill: none; stroke: #b0b0b0; stroke-opacity: 0.2; stroke-width: 0.8; stroke-linecap: square"/>
     </g>
     <g id="line2d_13">
      <g>
       <use xlink:href="#mb277d62d63" x="58.149459" y="174.030365" style="stroke: #000000; stroke-width: 0.8"/>
      </g>
     </g>
     <g id="text_12">
      <text style="font-size: 13px; font-family: 'DejaVu Sans'; text-anchor: end" x="51.149459" y="178.969349" transform="rotate(-0 51.149459 178.969349)">−0.5</text>
     </g>
    </g>
    <g id="ytick_3">
     <g id="line2d_14">
      <path d="M 58.149459 113.257944 
L 572.99976 113.257944 
" clip-path="url(#pf4133deb92)" style="fill: none; stroke: #b0b0b0; stroke-opacity: 0.2; stroke-width: 0.8; stroke-linecap: square"/>
     </g>
     <g id="line2d_15">
      <g>
       <use xlink:href="#mb277d62d63" x="58.149459" y="113.257944" style="stroke: #000000; stroke-width: 0.8"/>
      </g>
     </g>
     <g id="text_13">
      <text style="font-size: 13px; font-family: 'DejaVu Sans'; text-anchor: end" x="51.149459" y="118.196928" transform="rotate(-0 51.149459 118.196928)">0.0</text>
     </g>
    </g>
    <g id="ytick_4">
     <g id="line2d_16">
      <path d="M 58.149459 52.485523 
L 572.99976 52.485523 
" clip-path="url(#pf4133deb92)" style="fill: none; stroke: #b0b0b0; stroke-opacity: 0.2; stroke-width: 0.8; stroke-linecap: square"/>
     </g>
     <g id="line2d_17">
      <g>
       <use xlink:href="#mb277d62d63" x="58.149459" y="52.485523" style="stroke: #000000; stroke-width: 0.8"/>
      </g>
     </g>
     <g id="text_14">
      <text style="font-size: 13px; font-family: 'DejaVu Sans'; text-anchor: end" x="51.149459" y="57.424507" transform="rotate(-0 51.149459 57.424507)">0.5</text>
     </g>
    </g>
    <g id="text_15">
     <text style="font-size: 13px; font-family: 'DejaVu Sans'; text-anchor: middle; fill: #30273e" x="12.878209" y="147.518437" transform="rotate(-90 12.878209 147.518437)">normal draw</text>
    </g>
   </g>
   <g id="line2d_18">
    <path d="M 81.551745 39.63045 
L 315.574609 16.138258 
L 549.597474 223.733335 
" clip-path="url(#pf4133deb92)" style="fill: none; stroke: #6240ad; stroke-width: 2.3; stroke-linecap: square"/>
    <defs>
     <path id="m1453a1478c" d="M 0 1.5 
C 0.397805 1.5 0.77937 1.341951 1.06066 1.06066 
C 1.341951 0.77937 1.5 0.397805 1.5 0 
C 1.5 -0.397805 1.341951 -0.77937 1.06066 -1.06066 
C 0.77937 -1.341951 0.397805 -1.5 0 -1.5 
C -0.397805 -1.5 -0.77937 -1.341951 -1.06066 -1.06066 
C -1.341951 -0.77937 -1.5 -0.397805 -1.5 0 
C -1.5 0.397805 -1.341951 0.77937 -1.06066 1.06066 
C -0.77937 1.341951 -0.397805 1.5 0 1.5 
z
" style="stroke: #6240ad"/>
    </defs>
    <g clip-path="url(#pf4133deb92)">
     <use xlink:href="#m1453a1478c" x="81.551745" y="39.63045" style="fill: #6240ad; stroke: #6240ad"/>
     <use xlink:href="#m1453a1478c" x="315.574609" y="16.138258" style="fill: #6240ad; stroke: #6240ad"/>
     <use xlink:href="#m1453a1478c" x="549.597474" y="223.733335" style="fill: #6240ad; stroke: #6240ad"/>
    </g>
   </g>
   <g id="line2d_19">
    <path d="M 81.551745 39.63045 
L 315.574609 16.138258 
L 549.597474 223.733335 
" clip-path="url(#pf4133deb92)" style="fill: none; stroke-dasharray: 8.51,3.68; stroke-dashoffset: 0; stroke: #087c83; stroke-width: 2.3"/>
    <defs>
     <path id="m95df668854" d="M 0 1.5 
C 0.397805 1.5 0.77937 1.341951 1.06066 1.06066 
C 1.341951 0.77937 1.5 0.397805 1.5 0 
C 1.5 -0.397805 1.341951 -0.77937 1.06066 -1.06066 
C 0.77937 -1.341951 0.397805 -1.5 0 -1.5 
C -0.397805 -1.5 -0.77937 -1.341951 -1.06066 -1.06066 
C -1.341951 -0.77937 -1.5 -0.397805 -1.5 0 
C -1.5 0.397805 -1.341951 0.77937 -1.06066 1.06066 
C -0.77937 1.341951 -0.397805 1.5 0 1.5 
z
" style="stroke: #087c83"/>
    </defs>
    <g clip-path="url(#pf4133deb92)">
     <use xlink:href="#m95df668854" x="81.551745" y="39.63045" style="fill: #087c83; stroke: #087c83"/>
     <use xlink:href="#m95df668854" x="315.574609" y="16.138258" style="fill: #087c83; stroke: #087c83"/>
     <use xlink:href="#m95df668854" x="549.597474" y="223.733335" style="fill: #087c83; stroke: #087c83"/>
    </g>
   </g>
   <g id="line2d_20">
    <path d="M 81.551745 138.890578 
L 315.574609 278.898617 
L 549.597474 118.727929 
" clip-path="url(#pf4133deb92)" style="fill: none; stroke-dasharray: 14.72,3.68,2.3,3.68; stroke-dashoffset: 0; stroke: #bc532c; stroke-width: 2.3"/>
    <defs>
     <path id="m2ab28e8f57" d="M 0 1.5 
C 0.397805 1.5 0.77937 1.341951 1.06066 1.06066 
C 1.341951 0.77937 1.5 0.397805 1.5 0 
C 1.5 -0.397805 1.341951 -0.77937 1.06066 -1.06066 
C 0.77937 -1.341951 0.397805 -1.5 0 -1.5 
C -0.397805 -1.5 -0.77937 -1.341951 -1.06066 -1.06066 
C -1.341951 -0.77937 -1.5 -0.397805 -1.5 0 
C -1.5 0.397805 -1.341951 0.77937 -1.06066 1.06066 
C -0.77937 1.341951 -0.397805 1.5 0 1.5 
z
" style="stroke: #bc532c"/>
    </defs>
    <g clip-path="url(#pf4133deb92)">
     <use xlink:href="#m2ab28e8f57" x="81.551745" y="138.890578" style="fill: #bc532c; stroke: #bc532c"/>
     <use xlink:href="#m2ab28e8f57" x="315.574609" y="278.898617" style="fill: #bc532c; stroke: #bc532c"/>
     <use xlink:href="#m2ab28e8f57" x="549.597474" y="118.727929" style="fill: #bc532c; stroke: #bc532c"/>
    </g>
   </g>
   <g id="patch_3">
    <path d="M 58.149459 292.036635 
L 58.149459 3.00024 
" style="fill: none; stroke: #000000; stroke-width: 0.8; stroke-linejoin: miter; stroke-linecap: square"/>
   </g>
   <g id="patch_4">
    <path d="M 58.149459 292.036635 
L 572.99976 292.036635 
" style="fill: none; stroke: #000000; stroke-width: 0.8; stroke-linejoin: miter; stroke-linecap: square"/>
   </g>
   <g id="legend_1">
    <g id="patch_5">
     <path d="M 439.56976 60.238052 
L 565.29976 60.238052 
Q 567.49976 60.238052 567.49976 58.038052 
L 567.49976 10.70024 
Q 567.49976 8.50024 565.29976 8.50024 
L 439.56976 8.50024 
Q 437.36976 8.50024 437.36976 10.70024 
L 437.36976 58.038052 
Q 437.36976 60.238052 439.56976 60.238052 
z
" style="fill: #ffffff; opacity: 0.8; stroke: #cccccc; stroke-linejoin: miter"/>
    </g>
    <g id="line2d_21">
     <path d="M 441.76976 17.408521 
L 452.76976 17.408521 
L 463.76976 17.408521 
" style="fill: none; stroke: #6240ad; stroke-width: 2.3; stroke-linecap: square"/>
     <g>
      <use xlink:href="#m1453a1478c" x="452.76976" y="17.408521" style="fill: #6240ad; stroke: #6240ad"/>
     </g>
    </g>
    <g id="text_16">
     <text style="font-size: 11px; font-family: 'DejaVu Sans'; text-anchor: start; fill: #30273e" x="472.56976" y="21.258521" transform="rotate(-0 472.56976 21.258521)">first draw</text>
    </g>
    <g id="line2d_22">
     <path d="M 441.76976 33.554459 
L 452.76976 33.554459 
L 463.76976 33.554459 
" style="fill: none; stroke-dasharray: 8.51,3.68; stroke-dashoffset: 0; stroke: #087c83; stroke-width: 2.3"/>
     <g>
      <use xlink:href="#m95df668854" x="452.76976" y="33.554459" style="fill: #087c83; stroke: #087c83"/>
     </g>
    </g>
    <g id="text_17">
     <text style="font-size: 11px; font-family: 'DejaVu Sans'; text-anchor: start; fill: #30273e" x="472.56976" y="37.404459" transform="rotate(-0 472.56976 37.404459)">same key replay</text>
    </g>
    <g id="line2d_23">
     <path d="M 441.76976 49.700396 
L 452.76976 49.700396 
L 463.76976 49.700396 
" style="fill: none; stroke-dasharray: 14.72,3.68,2.3,3.68; stroke-dashoffset: 0; stroke: #bc532c; stroke-width: 2.3"/>
     <g>
      <use xlink:href="#m2ab28e8f57" x="452.76976" y="49.700396" style="fill: #bc532c; stroke: #bc532c"/>
     </g>
    </g>
    <g id="text_18">
     <text style="font-size: 11px; font-family: 'DejaVu Sans'; text-anchor: start; fill: #30273e" x="472.56976" y="53.550396" transform="rotate(-0 472.56976 53.550396)">split next draw</text>
    </g>
   </g>
  </g>
 </g>
 <defs>
  <clipPath id="pf4133deb92">
   <rect x="58.149459" y="3.00024" width="514.850301" height="289.036395"/>
  </clipPath>
 </defs>
</svg>
