<?xml version="1.0" encoding="utf-8" standalone="no"?>
<!DOCTYPE svg PUBLIC "-//W3C//DTD SVG 1.1//EN"
  "http://www.w3.org/Graphics/SVG/1.1/DTD/svg11.dtd">
<svg xmlns:xlink="http://www.w3.org/1999/xlink" width="576pt" height="295.2pt" viewBox="0 0 576 295.2" xmlns="http://www.w3.org/2000/svg" version="1.1">
 <metadata>
  <rdf:RDF xmlns:dc="http://purl.org/dc/elements/1.1/" xmlns:cc="http://creativecommons.org/ns#" xmlns:rdf="http://www.w3.org/1999/02/22-rdf-syntax-ns#">
   <cc:Work>
    <dc:type rdf:resource="http://purl.org/dc/dcmitype/StillImage"/>
    <dc:description>Each row is one environment. A terminating transition can still earn reward; later cells are padding under this absorbing-state contract. Tensor length stays fixed while activity changes. This is a conceptual rollout example, not an auto-reset implementation.</dc:description>
    <dc:format>image/svg+xml</dc:format>
    <dc:creator>
     <cc:Agent>
      <dc:title>Matplotlib v3.10.8, https://matplotlib.org/</dc:title>
     </cc:Agent>
    </dc:creator>
   </cc:Work>
  </rdf:RDF>
 </metadata>
 <defs>
  <style type="text/css">*{stroke-linejoin: round; stroke-linecap: butt}</style>
 </defs>
 <g id="figure_1">
  <g id="patch_1">
   <path d="M 0 295.2 
L 576 295.2 
L 576 0 
L 0 0 
z
" style="fill: #ffffff"/>
  </g>
  <g id="axes_1">
   <g id="table_1">
    <g id="patch_2">
     <path d="M 3.00024 106.377389 
L 117.000144 106.377389 
L 117.000144 65.154777 
L 3.00024 65.154777 
z
" style="fill: #e9e4f5; stroke: #ccd3df; stroke-linejoin: miter"/>
    </g>
    <g id="text_1">
     <text style="font-weight: 700; font-size: 12px; font-family: 'DejaVu Sans'; text-anchor: middle; fill: #172334" x="60.000192" y="89.077333" transform="rotate(-0 60.000192 89.077333)">Environment</text>
    </g>
    <g id="patch_3">
     <path d="M 117.000144 106.377389 
L 231.000048 106.377389 
L 231.000048 65.154777 
L 117.000144 65.154777 
z
" style="fill: #e9e4f5; stroke: #ccd3df; stroke-linejoin: miter"/>
    </g>
    <g id="text_2">
     <text style="font-weight: 700; font-size: 12px; font-family: 'DejaVu Sans'; text-anchor: middle; fill: #172334" x="174.000096" y="89.077333" transform="rotate(-0 174.000096 89.077333)">Step 0</text>
    </g>
    <g id="patch_4">
     <path d="M 231.000048 106.377389 
L 344.999952 106.377389 
L 344.999952 65.154777 
L 231.000048 65.154777 
z
" style="fill: #e9e4f5; stroke: #ccd3df; stroke-linejoin: miter"/>
    </g>
    <g id="text_3">
     <text style="font-weight: 700; font-size: 12px; font-family: 'DejaVu Sans'; text-anchor: middle; fill: #172334" x="288" y="89.077333" transform="rotate(-0 288 89.077333)">Step 1</text>
    </g>
    <g id="patch_5">
     <path d="M 344.999952 106.377389 
L 458.999856 106.377389 
L 458.999856 65.154777 
L 344.999952 65.154777 
z
" style="fill: #e9e4f5; stroke: #ccd3df; stroke-linejoin: miter"/>
    </g>
    <g id="text_4">
     <text style="font-weight: 700; font-size: 12px; font-family: 'DejaVu Sans'; text-anchor: middle; fill: #172334" x="401.999904" y="89.077333" transform="rotate(-0 401.999904 89.077333)">Step 2</text>
    </g>
    <g id="patch_6">
     <path d="M 458.999856 106.377389 
L 572.99976 106.377389 
L 572.99976 65.154777 
L 458.999856 65.154777 
z
" style="fill: #e9e4f5; stroke: #ccd3df; stroke-linejoin: miter"/>
    </g>
    <g id="text_5">
     <text style="font-weight: 700; font-size: 12px; font-family: 'DejaVu Sans'; text-anchor: middle; fill: #172334" x="515.999808" y="89.077333" transform="rotate(-0 515.999808 89.077333)">Step 3</text>
    </g>
    <g id="patch_7">
     <path d="M 3.00024 147.6 
L 117.000144 147.6 
L 117.000144 106.377389 
L 3.00024 106.377389 
z
" style="fill: #f4f7fb; stroke: #ccd3df; stroke-linejoin: miter"/>
    </g>
    <g id="text_6">
     <text style="font-size: 12px; font-family: 'DejaVu Sans'; text-anchor: middle; fill: #172334" x="60.000192" y="130.299944" transform="rotate(-0 60.000192 130.299944)">A</text>
    </g>
    <g id="patch_8">
     <path d="M 117.000144 147.6 
L 231.000048 147.6 
L 231.000048 106.377389 
L 117.000144 106.377389 
z
" style="fill: #f4f7fb; stroke: #ccd3df; stroke-linejoin: miter"/>
    </g>
    <g id="text_7">
     <text style="font-size: 12px; font-family: 'DejaVu Sans'; text-anchor: middle; fill: #172334" x="174.000096" y="130.299944" transform="rotate(-0 174.000096 130.299944)">active</text>
    </g>
    <g id="patch_9">
     <path d="M 231.000048 147.6 
L 344.999952 147.6 
L 344.999952 106.377389 
L 231.000048 106.377389 
z
" style="fill: #f4f7fb; stroke: #ccd3df; stroke-linejoin: miter"/>
    </g>
    <g id="text_8">
     <text style="font-size: 12px; font-family: 'DejaVu Sans'; fill: #172334" transform="translate(262.936875 123.581257)">terminal</text>
     <text style="font-size: 12px; font-family: 'DejaVu Sans'; fill: #172334" transform="translate(260.2875 137.018632)">+ reward</text>
    </g>
    <g id="patch_10">
     <path d="M 344.999952 147.6 
L 458.999856 147.6 
L 458.999856 106.377389 
L 344.999952 106.377389 
z
" style="fill: #f4f7fb; stroke: #ccd3df; stroke-linejoin: miter"/>
    </g>
    <g id="text_9">
     <text style="font-size: 12px; font-family: 'DejaVu Sans'; text-anchor: middle; fill: #172334" x="401.999904" y="130.299944" transform="rotate(-0 401.999904 130.299944)">padding</text>
    </g>
    <g id="patch_11">
     <path d="M 458.999856 147.6 
L 572.99976 147.6 
L 572.99976 106.377389 
L 458.999856 106.377389 
z
" style="fill: #f4f7fb; stroke: #ccd3df; stroke-linejoin: miter"/>
    </g>
    <g id="text_10">
     <text style="font-size: 12px; font-family: 'DejaVu Sans'; text-anchor: middle; fill: #172334" x="515.999808" y="130.299944" transform="rotate(-0 515.999808 130.299944)">padding</text>
    </g>
    <g id="patch_12">
     <path d="M 3.00024 188.822611 
L 117.000144 188.822611 
L 117.000144 147.6 
L 3.00024 147.6 
z
" style="fill: #ffffff; stroke: #ccd3df; stroke-linejoin: miter"/>
    </g>
    <g id="text_11">
     <text style="font-size: 12px; font-family: 'DejaVu Sans'; text-anchor: middle; fill: #172334" x="60.000192" y="171.522556" transform="rotate(-0 60.000192 171.522556)">B</text>
    </g>
    <g id="patch_13">
     <path d="M 117.000144 188.822611 
L 231.000048 188.822611 
L 231.000048 147.6 
L 117.000144 147.6 
z
" style="fill: #ffffff; stroke: #ccd3df; stroke-linejoin: miter"/>
    </g>
    <g id="text_12">
     <text style="font-size: 12px; font-family: 'DejaVu Sans'; text-anchor: middle; fill: #172334" x="174.000096" y="171.522556" transform="rotate(-0 174.000096 171.522556)">active</text>
    </g>
    <g id="patch_14">
     <path d="M 231.000048 188.822611 
L 344.999952 188.822611 
L 344.999952 147.6 
L 231.000048 147.6 
z
" style="fill: #ffffff; stroke: #ccd3df; stroke-linejoin: miter"/>
    </g>
    <g id="text_13">
     <text style="font-size: 12px; font-family: 'DejaVu Sans'; text-anchor: middle; fill: #172334" x="288" y="171.522556" transform="rotate(-0 288 171.522556)">active</text>
    </g>
    <g id="patch_15">
     <path d="M 344.999952 188.822611 
L 458.999856 188.822611 
L 458.999856 147.6 
L 344.999952 147.6 
z
" style="fill: #ffffff; stroke: #ccd3df; stroke-linejoin: miter"/>
    </g>
    <g id="text_14">
     <text style="font-size: 12px; font-family: 'DejaVu Sans'; fill: #172334" transform="translate(376.936779 164.803868)">terminal</text>
     <text style="font-size: 12px; font-family: 'DejaVu Sans'; fill: #172334" transform="translate(374.287404 178.241243)">+ reward</text>
    </g>
    <g id="patch_16">
     <path d="M 458.999856 188.822611 
L 572.99976 188.822611 
L 572.99976 147.6 
L 458.999856 147.6 
z
" style="fill: #ffffff; stroke: #ccd3df; stroke-linejoin: miter"/>
    </g>
    <g id="text_15">
     <text style="font-size: 12px; font-family: 'DejaVu Sans'; text-anchor: middle; fill: #172334" x="515.999808" y="171.522556" transform="rotate(-0 515.999808 171.522556)">padding</text>
    </g>
    <g id="patch_17">
     <path d="M 3.00024 230.045223 
L 117.000144 230.045223 
L 117.000144 188.822611 
L 3.00024 188.822611 
z
" style="fill: #f4f7fb; stroke: #ccd3df; stroke-linejoin: miter"/>
    </g>
    <g id="text_16">
     <text style="font-size: 12px; font-family: 'DejaVu Sans'; text-anchor: middle; fill: #172334" x="60.000192" y="212.745167" transform="rotate(-0 60.000192 212.745167)">C</text>
    </g>
    <g id="patch_18">
     <path d="M 117.000144 230.045223 
L 231.000048 230.045223 
L 231.000048 188.822611 
L 117.000144 188.822611 
z
" style="fill: #f4f7fb; stroke: #ccd3df; stroke-linejoin: miter"/>
    </g>
    <g id="text_17">
     <text style="font-size: 12px; font-family: 'DejaVu Sans'; text-anchor: middle; fill: #172334" x="174.000096" y="212.745167" transform="rotate(-0 174.000096 212.745167)">active</text>
    </g>
    <g id="patch_19">
     <path d="M 231.000048 230.045223 
L 344.999952 230.045223 
L 344.999952 188.822611 
L 231.000048 188.822611 
z
" style="fill: #f4f7fb; stroke: #ccd3df; stroke-linejoin: miter"/>
    </g>
    <g id="text_18">
     <text style="font-size: 12px; font-family: 'DejaVu Sans'; text-anchor: middle; fill: #172334" x="288" y="212.745167" transform="rotate(-0 288 212.745167)">active</text>
    </g>
    <g id="patch_20">
     <path d="M 344.999952 230.045223 
L 458.999856 230.045223 
L 458.999856 188.822611 
L 344.999952 188.822611 
z
" style="fill: #f4f7fb; stroke: #ccd3df; stroke-linejoin: miter"/>
    </g>
    <g id="text_19">
     <text style="font-size: 12px; font-family: 'DejaVu Sans'; text-anchor: middle; fill: #172334" x="401.999904" y="212.745167" transform="rotate(-0 401.999904 212.745167)">active</text>
    </g>
    <g id="patch_21">
     <path d="M 458.999856 230.045223 
L 572.99976 230.045223 
L 572.99976 188.822611 
L 458.999856 188.822611 
z
" style="fill: #f4f7fb; stroke: #ccd3df; stroke-linejoin: miter"/>
    </g>
    <g id="text_20">
     <text style="font-size: 12px; font-family: 'DejaVu Sans'; text-anchor: middle; fill: #172334" x="515.999808" y="212.745167" transform="rotate(-0 515.999808 212.745167)">active</text>
    </g>
   </g>
  </g>
 </g>
</svg>
